<mxfile host="app.diagrams.net" modified="2023-11-03T12:15:09.223Z" agent="Mozilla/5.0 (Windows NT 10.0; Win64; x64) AppleWebKit/537.36 (KHTML, like Gecko) Chrome/118.0.0.0 Safari/537.36" version="22.0.8" etag="7IuYesXXRxBF0JnreAwd" type="github">
  <diagram name="Page-1" id="hg5ggJ_x2_AJq_R347Gy">
    <mxGraphModel>
      <root>
        <mxCell id="0" />
        <mxCell id="1" parent="0" />
      </root>
    </mxGraphModel>
  </diagram>
</mxfile>
